<svg width="340" height="101" viewBox="0 0 340 101" fill="none" xmlns="http://www.w3.org/2000/svg">
<path d="M156.121 7.78391V45.4133H147.789V29.1887H132.252V45.4133H123.92V7.78391H132.252V21.9471H147.789V7.78391H156.121ZM163.484 22.0271V45.4133H171.874V18.7884L163.484 22.0271ZM196.732 27.6559V34.3688H180.655V27.6559H196.732ZM229.234 7.78391V14.8122H217.805V45.4133H209.423V14.8122H197.993V7.78391H229.234ZM262.132 7.78391V14.5501H241.894V22.7424H260.48V29.242H241.894V38.4916H262.509V45.4133H233.616V7.78391H262.132ZM302.186 30.8813C301.759 35.6039 300.085 39.3535 297.167 42.139C294.244 44.9246 290.24 46.3151 285.149 46.3151C279.631 46.3151 275.191 44.507 271.824 40.8995C268.457 37.2876 266.778 32.5029 266.778 26.5497C266.778 20.912 268.48 16.2294 271.878 12.4931C275.281 8.76129 279.811 6.89093 285.472 6.89093C289.993 6.89093 293.786 8.16153 296.848 10.6983C299.91 13.2351 301.602 16.456 301.921 20.37H293.75C293.324 18.2908 292.372 16.6781 290.891 15.5319C289.414 14.3857 287.55 13.817 285.31 13.817C283.07 13.817 281.045 14.4612 279.461 15.7452C277.876 17.0291 276.763 18.6062 276.121 20.4722C275.479 22.3425 275.16 24.3817 275.16 26.603C275.16 30.477 276.067 33.5691 277.885 35.8793C279.703 38.1895 282.141 39.3401 285.203 39.3401C290.293 39.3401 293.194 36.5191 293.907 30.8858H302.186V30.8813ZM339.999 7.78391V45.4133H331.667V29.1887H316.129V45.4133H307.797V7.78391H316.129V21.9471H331.667V7.78391H339.999ZM157.886 78.6799C157.459 83.4025 155.785 87.1521 152.867 89.9376C149.944 92.7232 145.94 94.1138 140.849 94.1138C135.331 94.1138 130.891 92.3056 127.525 88.6981C124.158 85.0863 122.479 80.3015 122.479 74.3483C122.479 68.7106 124.18 64.028 127.578 60.2917C130.981 56.5599 135.511 54.6895 141.172 54.6895C145.693 54.6895 149.486 55.9601 152.548 58.4969C155.61 61.0337 157.302 64.2546 157.621 68.1686H149.45C149.024 66.0894 148.072 64.4767 146.591 63.3305C145.114 62.1843 143.251 61.6157 141.01 61.6157C138.77 61.6157 136.746 62.2598 135.161 63.5438C133.576 64.8277 132.463 66.4049 131.821 68.2708C131.179 70.1411 130.86 72.1803 130.86 74.4017C130.86 78.2757 131.767 81.3678 133.585 83.6779C135.403 85.9837 137.841 87.1388 140.903 87.1388C145.994 87.1388 148.894 84.3177 149.607 78.6844H157.886V78.6799ZM190.411 86.1303V93.2119H163.493V55.5825H171.825V86.1303H190.411ZM227.528 55.5825V78.2001C227.528 83.5935 226.222 87.5653 223.6 90.1198C220.983 92.6743 216.898 93.9538 211.344 93.9538C205.791 93.9538 201.58 92.661 198.927 90.0709C196.274 87.4809 194.949 83.4913 194.949 78.0979V55.5825H203.282V78.0979C203.282 81.1634 203.87 83.4336 205.046 84.9174C206.222 86.3968 208.359 87.1388 211.452 87.1388C214.545 87.1388 216.48 86.3968 217.567 84.9174C218.653 83.4336 219.196 81.1634 219.196 78.0979V55.5825H227.528ZM234.684 55.5825H252.682C256.242 55.5825 259.156 56.3689 261.414 57.9371C263.676 59.5054 264.808 61.8733 264.808 65.0454C264.808 66.8047 264.345 68.3641 263.42 69.7235C262.496 71.0785 261.23 72.1092 259.627 72.8156C264.255 74.1173 266.572 77.1828 266.572 82.0119C266.572 85.5705 265.36 88.3294 262.94 90.2842C260.52 92.2389 257.441 93.2163 253.701 93.2163H234.689V55.587L234.684 55.5825ZM242.801 61.98V70.8075H250.383C254.585 70.8075 256.682 69.3459 256.682 66.4226C256.682 64.6944 256.112 63.526 254.976 62.9085C253.836 62.2909 252.305 61.9844 250.383 61.9844H242.801V61.98ZM242.801 76.4097V86.6634H251.183C253.355 86.6634 255.07 86.3124 256.336 85.6061C257.598 84.9041 258.231 83.5447 258.231 81.5366C258.231 79.5285 257.562 78.129 256.229 77.4404C254.891 76.7563 253.068 76.4097 250.756 76.4097H242.797H242.801ZM171.87 7.78391H163.484V16.0828L171.87 12.8485V7.78391Z" fill="white"/>
<path d="M98.7834 50.49L87.0437 28.9779C80.3407 28.9812 73.6718 28.9845 67.3913 28.9912C63.5236 28.9912 59.8023 28.9945 56.3128 28.9978H56.306L56.2992 28.9878L46.6417 12.6692L40.5043 2.29547L15.5972 3.14332H15.5393L15.5086 3.1932L2.29688 23.8209C4.9515 28.3029 7.58908 32.7683 10.1347 37.0641C12.8063 41.5793 15.3689 45.9083 17.7237 49.8849C17.8498 50.0977 17.9724 50.3105 18.0985 50.52V50.5299H18.0917L17.7237 51.155L16.6979 52.8873L13.7468 57.8747V57.8813L12.7722 59.5205C9.4497 65.1329 5.89544 71.1411 2.32073 77.1824L15.4882 97.7437L15.5598 97.8567H15.6995L40.5282 98.7046L52.8983 77.7975L56.306 72.0388H56.3094L56.3162 72.0288H73.8967L87.071 72.0222L98.7834 50.5033V50.4967V50.49ZM14.5579 34.567L8.2604 23.9207L18.4359 8.03759L37.6146 7.38591L42.2184 15.1629L47.5856 24.2332L50.397 28.9878L50.4038 29.0011L50.5367 29.2239L51.5181 30.883L53.3549 33.9819L54.476 35.8771L58.5415 42.7463L60.1295 45.4329L60.3067 45.7321L60.4805 46.0247L61.7243 48.1294H46.7643H45.8613H44.5289L44.5255 48.126L43.8712 47.0222L42.9204 45.4162L40.6645 41.6026L39.1038 38.9659L36.1561 33.9819L34.977 31.9902L33.1982 28.9878L32.0191 26.9829L30.8502 28.9646H30.8571L30.84 28.9845L29.068 31.9869L28.8635 32.3294L27.8855 33.9819L27.6538 34.3742L27.3573 34.8763L26.8257 35.7707L26.7371 35.9236L26.3043 36.6551L26.1748 36.8712L25.8511 37.4198L24.7231 39.3283L24.6993 39.3682L24.0723 40.4255L23.8405 40.8179L23.3498 41.6491L23.2203 41.8652L21.0496 45.5326L14.5579 34.567ZM49.4428 73.658V73.6647L48.4716 75.3038H48.4682L37.635 93.6175L18.4563 92.9624L8.28085 77.0794L17.1955 62.0109L21.0428 55.514V55.5073L22.457 53.1234L23.9973 50.52L24.0041 50.5299L25.4251 48.126L27.6538 44.3622L27.6777 44.3223L28.015 43.7538L28.4648 42.989L29.1328 41.8652L29.2588 41.6491L30.3766 39.7606L30.6083 39.3682L30.6322 39.3283L30.9082 38.8628L31.3035 38.1979L31.7056 37.5162L32.0225 36.9809L33.5389 39.5444L36.49 44.5351L38.6165 48.126L39.4139 49.4726L39.9659 50.4069L39.3457 51.4543L39.3287 51.4842L39.114 51.8466L38.6233 52.6778L38.4938 52.8939L38.3575 53.1234L31.9714 63.916L31.9509 63.9526L30.1278 67.0315L29.0203 68.9034V68.91L28.993 68.9466L26.9825 72.0288H49.7904L49.9983 72.0255H50.046L50.4072 72.0288L49.4428 73.658ZM83.9972 67.0381L73.8967 67.0448L59.2639 67.0514H55.7267L53.3515 67.0547L53.3617 67.0348H52.2815H51.3784H50.046L50.0426 67.0315H49.804L46.4951 67.0348H45.7386L44.1336 67.0315H43.8814H36.0368L42.9204 55.4009L42.9272 55.391L42.9511 55.3511L43.2885 54.7825L43.5815 54.2804L43.7383 54.0178L44.2733 53.12H44.5289H46.2464H47.2278H47.4834H70.5878L68.3796 49.3828L67.6367 48.126L66.093 45.5193L64.597 42.9924L64.4505 42.743L61.496 37.749L60.2556 35.6576L59.2639 33.9785H59.2605L67.3913 33.9719H72.9289L76.4014 33.9652H83.9768L92.997 50.4967L83.9972 67.0348V67.0381Z" fill="white" stroke="white"/>
</svg>
