<svg width="782" height="383" viewBox="0 0 782 383" fill="none" xmlns="http://www.w3.org/2000/svg">
<mask id="path-1-outside-1_208_562" maskUnits="userSpaceOnUse" x="0" y="0" width="782" height="383" fill="black">
<rect fill="white" width="782" height="383"/>
<path d="M144.8 123.6V143.2H198.8V123.6H144.8ZM144.8 73.6V92.8H198.8V73.6H144.8ZM106.8 40.4H238.8V176.4H106.8V40.4ZM94 201.2H248.8V240H94V201.2ZM272 74.8H378.8V118.4H272V74.8ZM144.4 258.4H212.4V296H144.4V258.4ZM148.8 172.8H193.2V220.4H148.8V172.8ZM152 1.99999L202.8 7.2C195.6 29.2 187.6 50.8 181.6 65.6L140 59.2C144.8 42.4 150 18.8 152 1.99999ZM194.4 258.4H236.4C236.4 258.4 236 268 235.6 273.2C233.6 328 231.2 352.8 223.2 362.4C216.8 370.4 209.6 373.2 200 374.4C192.4 376 178 376.4 163.2 376C162.4 364 158.4 348 152.8 338C163.6 339.2 172.8 339.2 177.6 339.2C182.4 339.2 185.2 338.8 187.2 336C191.2 330.4 192.8 312.8 194.4 264V258.4ZM320.8 102L362.8 105.2C351.6 232.4 323.2 323.2 252 378.8C245.6 371.6 228.4 356 218.8 348.8C288 301.6 312.4 217.2 320.8 102ZM284 105.6C293.2 186.4 315.2 291.2 383.6 340C374.8 348 360 366.4 354 377.6C286 320.8 264 209.2 254.4 130L284 105.6ZM16.8 40.8L44 5.99999C65.6 15.6 93.6 31.2 107.2 44.4L78.8 82.4C66.4 69.6 38.8 51.6 16.8 40.8ZM1.6 147.2L28.4 112C50 120.8 78 135.6 91.6 148L63.6 186.8C50.8 174 23.6 157.2 1.6 147.2ZM7.6 349.2C22.8 318 44 267.2 59.6 220.4L98.4 245.2C84.8 288.4 67.6 334.8 50.8 374L7.6 349.2ZM266.8 1.99999L311.2 9.59999C300.4 83.6 280.8 157.2 250 204.4C244 195.6 227.6 176.8 218 168.8C244 129.2 258.8 66 266.8 1.99999ZM132.8 226.8H172.8V251.2C172.8 287.6 164.8 343.6 108.8 381.6C101.6 373.2 86.8 360.8 76.8 354C126.4 320.4 132.8 277.2 132.8 249.6V226.8ZM578.8 232.8H717.2V266.8H578.8V232.8ZM529.6 29.6H768.4V64H529.6V29.6ZM540.4 80H757.2V112.4H540.4V80ZM517.2 129.2H780.8V163.6H517.2V129.2ZM579.2 284.8H718V318H579.2V284.8ZM544 179.2H715.2V214H588.4V378.4H544V179.2ZM708.4 179.2H753.6V332C753.6 352.8 749.6 364.4 735.2 370.8C720.8 377.6 701.2 378 673.2 378C671.6 366 665.6 348.4 660.4 337.2C676.4 338 695.6 338 701.2 337.6C706.4 337.6 708.4 336 708.4 331.2V179.2ZM623.6 2.39999H671.2V140.4H623.6V2.39999ZM451.6 2.39999H494.8V378H451.6V2.39999ZM417.2 81.6L450.8 85.6C450 119.2 443.6 167.2 435.6 198.4L400.4 186.4C409.2 158.8 414.8 114 417.2 81.6ZM488.4 69.2L518 56.8C526.4 75.2 536.8 99.6 541.2 114.4L510 129.2C506 113.6 496.4 88.4 488.4 69.2Z"/>
</mask>
<path d="M144.8 123.6V143.2H198.8V123.6H144.8ZM144.8 73.6V92.8H198.8V73.6H144.8ZM106.8 40.4H238.8V176.4H106.8V40.4ZM94 201.2H248.8V240H94V201.2ZM272 74.8H378.8V118.4H272V74.8ZM144.4 258.4H212.4V296H144.4V258.4ZM148.8 172.8H193.2V220.4H148.8V172.8ZM152 1.99999L202.8 7.2C195.6 29.2 187.6 50.8 181.6 65.6L140 59.2C144.8 42.4 150 18.8 152 1.99999ZM194.4 258.4H236.4C236.4 258.4 236 268 235.6 273.2C233.6 328 231.2 352.8 223.2 362.4C216.8 370.4 209.6 373.2 200 374.4C192.4 376 178 376.4 163.2 376C162.4 364 158.4 348 152.8 338C163.6 339.2 172.8 339.2 177.6 339.2C182.4 339.2 185.2 338.8 187.2 336C191.2 330.4 192.8 312.8 194.4 264V258.4ZM320.8 102L362.8 105.2C351.6 232.4 323.2 323.2 252 378.8C245.6 371.6 228.4 356 218.8 348.8C288 301.6 312.4 217.2 320.8 102ZM284 105.6C293.2 186.4 315.2 291.2 383.6 340C374.8 348 360 366.4 354 377.6C286 320.8 264 209.2 254.4 130L284 105.6ZM16.8 40.8L44 5.99999C65.6 15.6 93.6 31.2 107.2 44.4L78.8 82.4C66.4 69.6 38.8 51.6 16.8 40.8ZM1.6 147.2L28.4 112C50 120.8 78 135.6 91.6 148L63.6 186.8C50.8 174 23.6 157.2 1.6 147.2ZM7.6 349.2C22.8 318 44 267.2 59.6 220.4L98.4 245.2C84.8 288.4 67.6 334.8 50.8 374L7.6 349.2ZM266.8 1.99999L311.2 9.59999C300.4 83.6 280.8 157.2 250 204.4C244 195.6 227.6 176.8 218 168.8C244 129.2 258.8 66 266.8 1.99999ZM132.8 226.8H172.8V251.2C172.8 287.6 164.8 343.6 108.8 381.6C101.6 373.2 86.8 360.8 76.8 354C126.4 320.4 132.8 277.2 132.8 249.6V226.8ZM578.8 232.8H717.2V266.8H578.8V232.8ZM529.6 29.6H768.4V64H529.6V29.6ZM540.4 80H757.2V112.4H540.4V80ZM517.2 129.2H780.8V163.6H517.2V129.2ZM579.2 284.8H718V318H579.2V284.8ZM544 179.2H715.2V214H588.4V378.4H544V179.2ZM708.4 179.2H753.6V332C753.6 352.8 749.6 364.4 735.2 370.8C720.8 377.6 701.2 378 673.2 378C671.6 366 665.6 348.4 660.4 337.2C676.4 338 695.6 338 701.2 337.6C706.4 337.6 708.4 336 708.4 331.2V179.2ZM623.6 2.39999H671.2V140.4H623.6V2.39999ZM451.6 2.39999H494.8V378H451.6V2.39999ZM417.2 81.6L450.8 85.6C450 119.2 443.6 167.2 435.6 198.4L400.4 186.4C409.2 158.8 414.8 114 417.2 81.6ZM488.4 69.2L518 56.8C526.4 75.2 536.8 99.6 541.2 114.4L510 129.2C506 113.6 496.4 88.4 488.4 69.2Z" fill="url(#paint0_linear_208_562)"/>
<path d="M144.8 123.6V122.6H143.8V123.6H144.8ZM144.8 143.2H143.8V144.2H144.8V143.2ZM198.8 143.2V144.2H199.8V143.2H198.8ZM198.8 123.6H199.8V122.6H198.8V123.6ZM144.8 73.6V72.6H143.8V73.6H144.8ZM144.8 92.8H143.8V93.8H144.8V92.8ZM198.8 92.8V93.8H199.8V92.8H198.8ZM198.8 73.6H199.8V72.6H198.8V73.6ZM106.8 40.4V39.4H105.8V40.4H106.8ZM238.8 40.4H239.8V39.4H238.8V40.4ZM238.8 176.4V177.4H239.8V176.4H238.8ZM106.8 176.4H105.8V177.4H106.8V176.4ZM94 201.2V200.2H93V201.2H94ZM248.8 201.2H249.8V200.2H248.8V201.2ZM248.8 240V241H249.8V240H248.8ZM94 240H93V241H94V240ZM272 74.8V73.8H271V74.8H272ZM378.8 74.8H379.8V73.8H378.8V74.8ZM378.8 118.4V119.4H379.8V118.4H378.8ZM272 118.4H271V119.4H272V118.4ZM144.4 258.4V257.4H143.4V258.4H144.4ZM212.4 258.4H213.4V257.4H212.4V258.4ZM212.4 296V297H213.4V296H212.4ZM144.4 296H143.4V297H144.4V296ZM148.8 172.8V171.8H147.8V172.8H148.8ZM193.2 172.8H194.2V171.8H193.2V172.8ZM193.2 220.4V221.4H194.2V220.4H193.2ZM148.8 220.4H147.8V221.4H148.8V220.4ZM152 1.99999L152.102 1.00519L151.123 0.905022L151.007 1.88177L152 1.99999ZM202.8 7.2L203.75 7.51103L204.136 6.33157L202.902 6.20519L202.8 7.2ZM181.6 65.6L181.448 66.5883L182.23 66.7086L182.527 65.9757L181.6 65.6ZM140 59.2L139.038 58.9253L138.727 60.0159L139.848 60.1884L140 59.2ZM194.4 258.4V257.4H193.4V258.4H194.4ZM236.4 258.4L237.399 258.442L237.443 257.4H236.4V258.4ZM235.6 273.2L234.603 273.123L234.601 273.143L234.601 273.164L235.6 273.2ZM223.2 362.4L222.432 361.76L222.425 361.767L222.419 361.775L223.2 362.4ZM200 374.4L199.876 373.408L199.835 373.413L199.794 373.421L200 374.4ZM163.2 376L162.202 376.067L162.263 376.975L163.173 377L163.2 376ZM152.8 338L152.91 337.006L150.977 336.791L151.927 338.489L152.8 338ZM194.4 264L195.399 264.033L195.4 264.016V264H194.4ZM320.8 102L320.876 101.003L319.876 100.927L319.803 101.927L320.8 102ZM362.8 105.2L363.796 105.288L363.885 104.28L362.876 104.203L362.8 105.2ZM252 378.8L251.253 379.464L251.876 380.166L252.615 379.588L252 378.8ZM218.8 348.8L218.237 347.974L217.082 348.761L218.2 349.6L218.8 348.8ZM284 105.6L284.994 105.487L284.785 103.657L283.364 104.828L284 105.6ZM383.6 340L384.273 340.74L385.19 339.906L384.181 339.186L383.6 340ZM354 377.6L353.359 378.367L354.302 379.155L354.882 378.072L354 377.6ZM254.4 130L253.764 129.228L253.341 129.577L253.407 130.12L254.4 130ZM16.8 40.8L16.0121 40.1842L15.2535 41.1548L16.3593 41.6977L16.8 40.8ZM44 5.99998L44.4061 5.08617L43.6928 4.76914L43.2121 5.38417L44 5.99998ZM107.2 44.4L108.001 44.9986L108.527 44.2946L107.896 43.6824L107.2 44.4ZM78.8 82.4L78.0818 83.0958L78.8984 83.9388L79.601 82.9986L78.8 82.4ZM1.6 147.2L0.804361 146.594L0.0449772 147.592L1.1862 148.11L1.6 147.2ZM28.4 112L28.7773 111.074L28.0682 110.785L27.6044 111.394L28.4 112ZM91.6 148L92.4109 148.585L92.9328 147.862L92.2738 147.261L91.6 148ZM63.6 186.8L62.8929 187.507L63.7235 188.338L64.4109 187.385L63.6 186.8ZM7.6 349.2L6.70101 348.762L6.29177 349.602L7.10213 350.067L7.6 349.2ZM59.6 220.4L60.1386 219.557L59.0572 218.866L58.6513 220.084L59.6 220.4ZM98.4 245.2L99.3539 245.5L99.5838 244.77L98.9386 244.357L98.4 245.2ZM50.8 374L50.3021 374.867L51.2766 375.427L51.7192 374.394L50.8 374ZM266.8 1.99999L266.969 1.01433L265.938 0.837807L265.808 1.87595L266.8 1.99999ZM311.2 9.59999L312.19 9.74441L312.33 8.77894L311.369 8.61433L311.2 9.59999ZM250 204.4L249.174 204.963L250.018 206.202L250.837 204.946L250 204.4ZM218 168.8L217.164 168.251L216.674 168.997L217.36 169.568L218 168.8ZM132.8 226.8V225.8H131.8V226.8H132.8ZM172.8 226.8H173.8V225.8H172.8V226.8ZM108.8 381.6L108.041 382.251L108.622 382.929L109.362 382.427L108.8 381.6ZM76.8 354L76.2392 353.172L75.0193 353.998L76.2377 354.827L76.8 354ZM143.8 123.6V143.2H145.8V123.6H143.8ZM144.8 144.2H198.8V142.2H144.8V144.2ZM199.8 143.2V123.6H197.8V143.2H199.8ZM198.8 122.6H144.8V124.6H198.8V122.6ZM143.8 73.6V92.8H145.8V73.6H143.8ZM144.8 93.8H198.8V91.8H144.8V93.8ZM199.8 92.8V73.6H197.8V92.8H199.8ZM198.8 72.6H144.8V74.6H198.8V72.6ZM106.8 41.4H238.8V39.4H106.8V41.4ZM237.8 40.4V176.4H239.8V40.4H237.8ZM238.8 175.4H106.8V177.4H238.8V175.4ZM107.8 176.4V40.4H105.8V176.4H107.8ZM94 202.2H248.8V200.2H94V202.2ZM247.8 201.2V240H249.8V201.2H247.8ZM248.8 239H94V241H248.8V239ZM95 240V201.2H93V240H95ZM272 75.8H378.8V73.8H272V75.8ZM377.8 74.8V118.4H379.8V74.8H377.8ZM378.8 117.4H272V119.4H378.8V117.4ZM273 118.4V74.8H271V118.4H273ZM144.4 259.4H212.4V257.4H144.4V259.4ZM211.4 258.4V296H213.4V258.4H211.4ZM212.4 295H144.4V297H212.4V295ZM145.4 296V258.4H143.4V296H145.4ZM148.8 173.8H193.2V171.8H148.8V173.8ZM192.2 172.8V220.4H194.2V172.8H192.2ZM193.2 219.4H148.8V221.4H193.2V219.4ZM149.8 220.4V172.8H147.8V220.4H149.8ZM151.898 2.99479L202.698 8.19479L202.902 6.20519L152.102 1.00519L151.898 2.99479ZM201.85 6.88895C194.656 28.8681 186.664 50.4465 180.673 65.2243L182.527 65.9757C188.536 51.1535 196.544 29.5319 203.75 7.51103L201.85 6.88895ZM181.752 64.6116L140.152 58.2116L139.848 60.1884L181.448 66.5883L181.752 64.6116ZM140.962 59.4747C145.772 42.6391 150.985 18.9851 152.993 2.1182L151.007 1.88177C149.015 18.6149 143.828 42.1609 139.038 58.9253L140.962 59.4747ZM194.4 259.4H236.4V257.4H194.4V259.4ZM236.4 258.4C235.401 258.358 235.401 258.358 235.401 258.358C235.401 258.359 235.401 258.359 235.401 258.359C235.401 258.359 235.401 258.359 235.401 258.36C235.401 258.361 235.401 258.363 235.401 258.365C235.4 258.37 235.4 258.377 235.4 258.386C235.399 258.404 235.398 258.431 235.396 258.467C235.393 258.538 235.389 258.644 235.383 258.78C235.371 259.052 235.354 259.447 235.332 259.937C235.289 260.917 235.226 262.278 235.151 263.801C235.001 266.851 234.802 270.538 234.603 273.123L236.597 273.277C236.798 270.662 236.999 266.949 237.149 263.899C237.224 262.372 237.286 261.008 237.33 260.026C237.352 259.535 237.369 259.139 237.381 258.866C237.387 258.729 237.392 258.623 237.395 258.551C237.396 258.515 237.397 258.488 237.398 258.47C237.398 258.46 237.399 258.453 237.399 258.449C237.399 258.446 237.399 258.445 237.399 258.443C237.399 258.443 237.399 258.442 237.399 258.442C237.399 258.442 237.399 258.442 237.399 258.442C237.399 258.442 237.399 258.442 236.4 258.4ZM234.601 273.164C233.601 300.567 232.502 320.423 230.658 334.621C228.808 348.874 226.228 357.204 222.432 361.76L223.968 363.04C228.172 357.996 230.792 349.126 232.642 334.879C234.498 320.577 235.599 300.633 236.599 273.236L234.601 273.164ZM222.419 361.775C216.23 369.512 209.305 372.229 199.876 373.408L200.124 375.392C209.895 374.171 217.37 371.288 223.981 363.025L222.419 361.775ZM199.794 373.421C192.323 374.994 178.032 375.401 163.227 375L163.173 377C177.968 377.4 192.477 377.006 200.206 375.379L199.794 373.421ZM164.198 375.933C163.391 363.826 159.363 347.672 153.673 337.511L151.927 338.489C157.437 348.328 161.409 364.174 162.202 376.067L164.198 375.933ZM152.69 338.994C163.548 340.2 172.795 340.2 177.6 340.2V338.2C172.805 338.2 163.652 338.2 152.91 337.006L152.69 338.994ZM177.6 340.2C182.382 340.2 185.69 339.834 188.014 336.581L186.386 335.419C184.71 337.766 182.418 338.2 177.6 338.2V340.2ZM188.014 336.581C189.128 335.022 190.014 332.72 190.762 329.475C191.513 326.214 192.143 321.916 192.695 316.298C193.799 305.061 194.6 288.431 195.399 264.033L193.401 263.967C192.6 288.369 191.801 304.939 190.705 316.102C190.157 321.684 189.537 325.886 188.813 329.025C188.086 332.18 187.272 334.178 186.386 335.419L188.014 336.581ZM195.4 264V258.4H193.4V264H195.4ZM320.724 102.997L362.724 106.197L362.876 104.203L320.876 101.003L320.724 102.997ZM361.804 105.112C350.609 232.257 322.237 322.683 251.385 378.012L252.615 379.588C324.163 323.717 352.591 232.543 363.796 105.288L361.804 105.112ZM252.747 378.136C246.296 370.878 229.044 355.233 219.4 348L218.2 349.6C227.756 356.767 244.904 372.322 251.253 379.464L252.747 378.136ZM219.363 349.626C288.976 302.145 313.395 217.307 321.797 102.073L319.803 101.927C311.405 217.093 287.024 301.055 218.237 347.974L219.363 349.626ZM283.006 105.713C287.61 146.145 295.421 192.632 310.659 235.137C325.894 277.635 348.587 316.248 383.019 340.814L384.181 339.186C350.213 314.952 327.706 276.765 312.541 234.463C297.379 192.168 289.59 145.855 284.994 105.487L283.006 105.713ZM382.927 339.26C374.051 347.329 359.177 365.818 353.119 377.128L354.882 378.072C360.823 366.982 375.549 348.671 384.273 340.74L382.927 339.26ZM354.641 376.833C320.841 348.599 298.419 306.695 283.247 261.879C268.079 217.074 260.189 169.452 255.393 129.88L253.407 130.12C258.211 169.748 266.121 217.526 281.353 262.521C296.581 307.505 319.159 349.801 353.359 378.367L354.641 376.833ZM255.036 130.772L284.636 106.372L283.364 104.828L253.764 129.228L255.036 130.772ZM17.5879 41.4158L44.7879 6.61581L43.2121 5.38417L16.0121 40.1842L17.5879 41.4158ZM43.5939 6.9138C65.1726 16.5043 93.0363 32.0464 106.504 45.1176L107.896 43.6824C94.1637 30.3536 66.0274 14.6956 44.4061 5.08617L43.5939 6.9138ZM106.399 43.8013L77.999 81.8013L79.601 82.9986L108.001 44.9986L106.399 43.8013ZM79.5182 81.7042C67.0034 68.7856 39.2872 50.7252 17.2407 39.9023L16.3593 41.6977C38.3128 52.4748 65.7966 70.4143 78.0818 83.0958L79.5182 81.7042ZM2.39564 147.806L29.1956 112.606L27.6044 111.394L0.804361 146.594L2.39564 147.806ZM28.0227 112.926C49.593 121.714 77.4597 136.461 90.9262 148.739L92.2738 147.261C78.5403 134.739 50.407 119.886 28.7773 111.074L28.0227 112.926ZM90.7891 147.415L62.7891 186.215L64.4109 187.385L92.4109 148.585L90.7891 147.415ZM64.3071 186.093C51.3866 173.172 24.0649 156.313 2.0138 146.29L1.1862 148.11C23.1351 158.087 50.2134 174.828 62.8929 187.507L64.3071 186.093ZM8.49899 349.638C23.7185 318.398 44.935 267.557 60.5487 220.716L58.6513 220.084C43.065 266.843 21.8815 317.602 6.70101 348.762L8.49899 349.638ZM59.0614 221.243L97.8615 246.043L98.9386 244.357L60.1386 219.557L59.0614 221.243ZM97.4462 244.9C83.8559 288.069 66.6674 334.438 49.8809 373.606L51.7192 374.394C68.5326 335.162 85.7441 288.731 99.3539 245.5L97.4462 244.9ZM51.2979 373.133L8.09787 348.333L7.10213 350.067L50.3021 374.867L51.2979 373.133ZM266.631 2.98566L311.031 10.5857L311.369 8.61433L266.969 1.01433L266.631 2.98566ZM310.211 9.45557C299.416 83.4201 279.84 156.841 249.163 203.854L250.837 204.946C281.76 157.559 301.384 83.7799 312.19 9.74441L310.211 9.45557ZM250.826 203.837C244.782 194.972 228.322 176.1 218.64 168.032L217.36 169.568C226.879 177.5 243.218 196.228 249.174 204.963L250.826 203.837ZM218.836 169.349C244.971 129.543 259.79 66.1432 267.792 2.12402L265.808 1.87595C257.81 65.8568 243.029 128.857 217.164 168.251L218.836 169.349ZM132.8 227.8H172.8V225.8H132.8V227.8ZM171.8 226.8V251.2H173.8V226.8H171.8ZM171.8 251.2C171.8 287.467 163.833 343.048 108.239 380.773L109.362 382.427C165.767 344.152 173.8 287.733 173.8 251.2H171.8ZM109.559 380.949C102.284 372.461 87.4084 360.004 77.3623 353.173L76.2377 354.827C86.1916 361.596 100.916 373.939 108.041 382.251L109.559 380.949ZM77.3608 354.828C127.336 320.974 133.8 277.389 133.8 249.6H131.8C131.8 277.011 125.464 319.826 76.2392 353.172L77.3608 354.828ZM133.8 249.6V226.8H131.8V249.6H133.8ZM578.8 232.8V231.8H577.8V232.8H578.8ZM717.2 232.8H718.2V231.8H717.2V232.8ZM717.2 266.8V267.8H718.2V266.8H717.2ZM578.8 266.8H577.8V267.8H578.8V266.8ZM529.6 29.6V28.6H528.6V29.6H529.6ZM768.4 29.6H769.4V28.6H768.4V29.6ZM768.4 64V65H769.4V64H768.4ZM529.6 64H528.6V65H529.6V64ZM540.4 80V79H539.4V80H540.4ZM757.2 80H758.2V79H757.2V80ZM757.2 112.4V113.4H758.2V112.4H757.2ZM540.4 112.4H539.4V113.4H540.4V112.4ZM517.2 129.2V128.2H516.2V129.2H517.2ZM780.8 129.2H781.8V128.2H780.8V129.2ZM780.8 163.6V164.6H781.8V163.6H780.8ZM517.2 163.6H516.2V164.6H517.2V163.6ZM579.2 284.8V283.8H578.2V284.8H579.2ZM718 284.8H719V283.8H718V284.8ZM718 318V319H719V318H718ZM579.2 318H578.2V319H579.2V318ZM544 179.2V178.2H543V179.2H544ZM715.2 179.2H716.2V178.2H715.2V179.2ZM715.2 214V215H716.2V214H715.2ZM588.4 214V213H587.4V214H588.4ZM588.4 378.4V379.4H589.4V378.4H588.4ZM544 378.4H543V379.4H544V378.4ZM708.4 179.2V178.2H707.4V179.2H708.4ZM753.6 179.2H754.6V178.2H753.6V179.2ZM735.2 370.8L734.794 369.886L734.783 369.891L734.773 369.896L735.2 370.8ZM673.2 378L672.209 378.132L672.324 379H673.2V378ZM660.4 337.2L660.45 336.201L658.795 336.119L659.493 337.621L660.4 337.2ZM701.2 337.6V336.6H701.164L701.129 336.603L701.2 337.6ZM623.6 2.39999V1.39999H622.6V2.39999H623.6ZM671.2 2.39999H672.2V1.39999H671.2V2.39999ZM671.2 140.4V141.4H672.2V140.4H671.2ZM623.6 140.4H622.6V141.4H623.6V140.4ZM451.6 2.39999V1.39999H450.6V2.39999H451.6ZM494.8 2.39999H495.8V1.39999H494.8V2.39999ZM494.8 378V379H495.8V378H494.8ZM451.6 378H450.6V379H451.6V378ZM417.2 81.6L417.318 80.607L416.28 80.4834L416.203 81.5261L417.2 81.6ZM450.8 85.6L451.8 85.6238L451.821 84.7145L450.918 84.607L450.8 85.6ZM435.6 198.4L435.277 199.346L436.3 199.695L436.569 198.648L435.6 198.4ZM400.4 186.4L399.447 186.096L399.149 187.03L400.077 187.346L400.4 186.4ZM488.4 69.2L488.014 68.2776L487.093 68.6633L487.477 69.5846L488.4 69.2ZM518 56.8L518.91 56.3847L518.507 55.5033L517.614 55.8776L518 56.8ZM541.2 114.4L541.629 115.303L542.403 114.936L542.159 114.115L541.2 114.4ZM510 129.2L509.031 129.448L509.333 130.623L510.429 130.104L510 129.2ZM578.8 233.8H717.2V231.8H578.8V233.8ZM716.2 232.8V266.8H718.2V232.8H716.2ZM717.2 265.8H578.8V267.8H717.2V265.8ZM579.8 266.8V232.8H577.8V266.8H579.8ZM529.6 30.6H768.4V28.6H529.6V30.6ZM767.4 29.6V64H769.4V29.6H767.4ZM768.4 63H529.6V65H768.4V63ZM530.6 64V29.6H528.6V64H530.6ZM540.4 81H757.2V79H540.4V81ZM756.2 80V112.4H758.2V80H756.2ZM757.2 111.4H540.4V113.4H757.2V111.4ZM541.4 112.4V80H539.4V112.4H541.4ZM517.2 130.2H780.8V128.2H517.2V130.2ZM779.8 129.2V163.6H781.8V129.2H779.8ZM780.8 162.6H517.2V164.6H780.8V162.6ZM518.2 163.6V129.2H516.2V163.6H518.2ZM579.2 285.8H718V283.8H579.2V285.8ZM717 284.8V318H719V284.8H717ZM718 317H579.2V319H718V317ZM580.2 318V284.8H578.2V318H580.2ZM544 180.2H715.2V178.2H544V180.2ZM714.2 179.2V214H716.2V179.2H714.2ZM715.2 213H588.4V215H715.2V213ZM587.4 214V378.4H589.4V214H587.4ZM588.4 377.4H544V379.4H588.4V377.4ZM545 378.4V179.2H543V378.4H545ZM708.4 180.2H753.6V178.2H708.4V180.2ZM752.6 179.2V332H754.6V179.2H752.6ZM752.6 332C752.6 342.361 751.599 350.29 748.886 356.394C746.197 362.444 741.792 366.776 734.794 369.886L735.606 371.714C743.008 368.424 747.803 363.756 750.714 357.206C753.601 350.71 754.6 342.439 754.6 332H752.6ZM734.773 369.896C727.722 373.226 719.351 375.01 709.207 375.954C699.061 376.899 687.206 377 673.2 377V379C687.194 379 699.139 378.901 709.393 377.946C719.649 376.99 728.278 375.174 735.627 371.704L734.773 369.896ZM674.191 377.868C672.573 365.734 666.532 348.033 661.307 336.779L659.493 337.621C664.668 348.767 670.627 366.266 672.209 378.132L674.191 377.868ZM660.35 338.199C676.364 338.999 695.611 339.002 701.271 338.597L701.129 336.603C695.589 336.998 676.436 337.001 660.45 336.201L660.35 338.199ZM701.2 338.6C703.848 338.6 705.968 338.205 707.406 336.955C708.883 335.67 709.4 333.704 709.4 331.2H707.4C707.4 333.496 706.917 334.73 706.094 335.445C705.232 336.195 703.752 336.6 701.2 336.6V338.6ZM709.4 331.2V179.2H707.4V331.2H709.4ZM623.6 3.39999H671.2V1.39999H623.6V3.39999ZM670.2 2.39999V140.4H672.2V2.39999H670.2ZM671.2 139.4H623.6V141.4H671.2V139.4ZM624.6 140.4V2.39999H622.6V140.4H624.6ZM451.6 3.39999H494.8V1.39999H451.6V3.39999ZM493.8 2.39999V378H495.8V2.39999H493.8ZM494.8 377H451.6V379H494.8V377ZM452.6 378V2.39999H450.6V378H452.6ZM417.082 82.593L450.682 86.593L450.918 84.607L417.318 80.607L417.082 82.593ZM449.8 85.5762C449.002 119.106 442.611 167.03 434.631 198.152L436.569 198.648C444.589 167.37 450.998 119.294 451.8 85.6238L449.8 85.5762ZM435.923 197.453L400.723 185.453L400.077 187.346L435.277 199.346L435.923 197.453ZM401.353 186.704C410.191 158.984 415.796 114.085 418.197 81.6739L416.203 81.5261C413.804 113.915 408.209 158.616 399.447 186.096L401.353 186.704ZM488.786 70.1223L518.386 57.7223L517.614 55.8776L488.014 68.2776L488.786 70.1223ZM517.09 57.2153C525.491 75.6178 535.864 99.9599 540.241 114.685L542.159 114.115C537.736 99.2401 527.309 74.7822 518.91 56.3847L517.09 57.2153ZM540.771 113.496L509.571 128.296L510.429 130.104L541.629 115.303L540.771 113.496ZM510.969 128.952C506.949 113.276 497.324 88.0182 489.323 68.8154L487.477 69.5846C495.476 88.7818 505.051 113.924 509.031 129.448L510.969 128.952Z" fill="url(#paint1_linear_208_562)" fill-opacity="0.26" mask="url(#path-1-outside-1_208_562)"/>
<defs>
<linearGradient id="paint0_linear_208_562" x1="495" y1="-67" x2="495" y2="716" gradientUnits="userSpaceOnUse">
<stop stop-opacity="0.06"/>
<stop offset="1" stop-opacity="0"/>
</linearGradient>
<linearGradient id="paint1_linear_208_562" x1="495" y1="-74" x2="495" y2="479" gradientUnits="userSpaceOnUse">
<stop stop-color="#0066FF" stop-opacity="0.32"/>
<stop offset="1" stop-color="#666666" stop-opacity="0"/>
</linearGradient>
</defs>
</svg>
