<svg width="48" height="48" viewBox="0 0 48 48" fill="none" xmlns="http://www.w3.org/2000/svg">
<rect width="48" height="48" rx="24" fill="white"/>
<g clip-path="url(#clip0_208_543)">
<path d="M27.0209 14.25V12.75C27.0209 12.5511 27.0999 12.3603 27.2406 12.2197C27.3812 12.079 27.572 12 27.7709 12C27.9698 12 28.1606 12.079 28.3012 12.2197C28.4419 12.3603 28.5209 12.5511 28.5209 12.75V14.25C28.5209 14.4489 28.4419 14.6397 28.3012 14.7803C28.1606 14.921 27.9698 15 27.7709 15C27.572 15 27.3812 14.921 27.2406 14.7803C27.0999 14.6397 27.0209 14.4489 27.0209 14.25ZM30.3846 15.8438C30.5022 15.916 30.6376 15.954 30.7756 15.9534C30.9043 15.9536 31.0309 15.9207 31.1432 15.8578C31.2555 15.7949 31.3497 15.7042 31.4168 15.5944L32.1668 14.3653C32.2181 14.2811 32.2523 14.1876 32.2674 14.0902C32.2826 13.9928 32.2784 13.8933 32.2551 13.7975C32.2318 13.7017 32.1899 13.6114 32.1317 13.5318C32.0735 13.4522 32.0002 13.3849 31.916 13.3336C31.8318 13.2823 31.7383 13.2481 31.6409 13.233C31.5435 13.2178 31.444 13.222 31.3482 13.2453C31.2524 13.2686 31.1622 13.3105 31.0826 13.3687C31.003 13.4269 30.9356 13.5002 30.8843 13.5844L30.1343 14.8125C30.083 14.8966 30.0488 14.9901 30.0336 15.0874C30.0184 15.1848 30.0225 15.2842 30.0457 15.38C30.069 15.4758 30.1109 15.566 30.169 15.6456C30.2272 15.7252 30.3004 15.7925 30.3846 15.8438ZM34.8387 17.0241C34.8085 16.9302 34.7601 16.8432 34.6962 16.7681C34.6323 16.693 34.5543 16.6312 34.4665 16.5862C34.3787 16.5413 34.283 16.5141 34.1847 16.5062C34.0864 16.4984 33.9875 16.5099 33.8937 16.5403L32.4818 16.995C32.3113 17.0495 32.1658 17.1633 32.0718 17.3157C31.9778 17.4681 31.9415 17.6492 31.9693 17.8261C31.9972 18.003 32.0874 18.164 32.2237 18.2802C32.36 18.3964 32.5334 18.4599 32.7124 18.4594C32.7907 18.459 32.8685 18.4467 32.9431 18.4228L34.354 17.9681C34.4483 17.938 34.5357 17.8896 34.6111 17.8256C34.6866 17.7615 34.7486 17.6832 34.7937 17.5951C34.8387 17.507 34.8659 17.4109 34.8736 17.3122C34.8814 17.2136 34.8695 17.1144 34.8387 17.0203V17.0241ZM32.344 21.1481C33.1383 22.5291 33.4735 24.1267 33.3013 25.7105C33.1291 27.2944 32.4584 28.7826 31.3859 29.9606C31.354 30.1228 31.3184 30.285 31.2743 30.4462C30.8877 31.8803 30.0848 33.1677 28.967 34.1458C27.8493 35.1238 26.4668 35.7488 24.9941 35.9418C23.5214 36.1348 22.0246 35.8871 20.6926 35.2301C19.3605 34.573 18.2531 33.536 17.5099 32.25L14.2034 26.5312C14.0025 26.1833 13.8908 25.7911 13.8782 25.3896C13.8655 24.988 13.9523 24.5895 14.1308 24.2296C14.3093 23.8697 14.574 23.5595 14.9014 23.3266C15.2287 23.0937 15.6086 22.9453 16.0071 22.8947L15.7259 22.4072C15.5253 22.0595 15.4137 21.6677 15.4009 21.2666C15.3882 20.8654 15.4747 20.4673 15.6528 20.1076C15.8309 19.7479 16.095 19.4377 16.4218 19.2047C16.7485 18.9716 17.1278 18.8228 17.5259 18.7716L17.4603 18.6562C17.1822 18.1774 17.0755 17.6182 17.1576 17.0707C17.2398 16.5231 17.5059 16.0198 17.9122 15.6437C18.3184 15.2675 18.8407 15.0409 19.3929 15.0011C19.9452 14.9613 20.4945 15.1107 20.9506 15.4247C21.1707 15.0622 21.4813 14.7633 21.8519 14.5572C22.2226 14.3512 22.6405 14.2452 23.0645 14.2496C23.4886 14.2541 23.9041 14.3688 24.2704 14.5826C24.6366 14.7963 24.9409 15.1017 25.1534 15.4688L26.3028 17.4563C26.5472 17.1374 26.8665 16.8838 27.2323 16.7178C27.5982 16.5517 27.9993 16.4785 28.4002 16.5044C28.8011 16.5304 29.1895 16.6548 29.5309 16.8666C29.8722 17.0784 30.1561 17.3711 30.3574 17.7188L32.344 21.1481ZM22.2256 17.1562L24.5693 21.2034C24.7648 20.9476 25.009 20.7331 25.2879 20.5721C25.5667 20.4112 25.8747 20.3072 26.194 20.2659L23.8521 16.2188C23.7278 16.0031 23.5229 15.8456 23.2825 15.781C23.042 15.7164 22.7858 15.7499 22.5701 15.8742C22.3544 15.9985 22.1969 16.2035 22.1323 16.4439C22.0677 16.6843 22.1012 16.9406 22.2256 17.1562ZM18.7615 17.9062L19.3671 18.9534C19.5627 18.6979 19.8068 18.4835 20.0855 18.3227C20.3641 18.1618 20.6718 18.0575 20.9909 18.0159L20.3862 16.9688C20.3246 16.8621 20.2427 16.7686 20.145 16.6936C20.0473 16.6186 19.9358 16.5635 19.8168 16.5316C19.6978 16.4997 19.5738 16.4916 19.4517 16.5076C19.3295 16.5237 19.2118 16.5636 19.1051 16.6252C18.9984 16.6867 18.9049 16.7687 18.8299 16.8664C18.7549 16.9641 18.6999 17.0756 18.668 17.1945C18.6361 17.3135 18.6279 17.4376 18.644 17.5597C18.66 17.6818 18.6999 17.7996 18.7615 17.9062ZM29.2184 25.5L27.3228 22.2188C27.2078 21.9982 27.0099 21.8324 26.7726 21.7577C26.5353 21.6831 26.2781 21.7058 26.0576 21.8208C25.8371 21.9358 25.6712 22.1337 25.5966 22.3709C25.522 22.6082 25.5446 22.8654 25.6596 23.0859L26.8409 25.125C26.9403 25.2974 26.9672 25.5023 26.9156 25.6946C26.864 25.8868 26.7382 26.0507 26.5657 26.1502C26.3933 26.2496 26.1884 26.2765 25.9962 26.2249C25.8039 26.1733 25.64 26.0474 25.5406 25.875L22.1187 19.9688C21.9944 19.7531 21.7895 19.5956 21.549 19.531C21.3086 19.4664 21.0524 19.4999 20.8367 19.6242C20.621 19.7485 20.4635 19.9535 20.3989 20.1939C20.3343 20.4343 20.3678 20.6906 20.4921 20.9062L22.9343 25.125C23.0338 25.2974 23.0607 25.5023 23.0091 25.6946C22.9575 25.8868 22.8316 26.0507 22.6592 26.1502C22.4867 26.2496 22.2819 26.2765 22.0896 26.2249C21.8973 26.1733 21.7335 26.0474 21.634 25.875L18.6565 20.7188C18.5322 20.5033 18.3274 20.3461 18.0871 20.2816C17.8469 20.2172 17.5909 20.2508 17.3754 20.3752C17.16 20.4995 17.0027 20.7043 16.9383 20.9445C16.8739 21.1848 16.9075 21.4408 17.0318 21.6562L20.3337 27.375C20.4331 27.5477 20.4599 27.7528 20.4082 27.9452C20.3564 28.1377 20.2303 28.3016 20.0576 28.4011C19.8849 28.5006 19.6798 28.5273 19.4874 28.4756C19.2949 28.4238 19.131 28.2977 19.0315 28.125L17.1303 24.8438C17.0059 24.6282 16.8011 24.4708 16.5607 24.4063C16.3204 24.3418 16.0643 24.3754 15.8487 24.4997C15.6331 24.624 15.4758 24.8289 15.4112 25.0692C15.3467 25.3096 15.3803 25.5657 15.5046 25.7812L18.8112 31.5C19.406 32.5283 20.2921 33.3573 21.3577 33.8823C22.4233 34.4074 23.6206 34.605 24.7983 34.4501C25.9761 34.2952 27.0816 33.7949 27.9752 33.0122C28.8689 32.2295 29.5106 31.1996 29.8193 30.0525C30.0254 29.2917 30.0785 28.4975 29.9753 27.716C29.8722 26.9345 29.6149 26.1813 29.2184 25.5ZM31.0381 21.8981L29.0562 18.4688C28.9946 18.3618 28.9126 18.2679 28.8148 18.1927C28.717 18.1174 28.6053 18.0621 28.4861 18.03C28.2454 17.9651 27.9888 17.9985 27.7728 18.1228C27.6658 18.1844 27.572 18.2664 27.4967 18.3642C27.4214 18.462 27.3661 18.5737 27.334 18.6929C27.2691 18.9336 27.3025 19.1902 27.4268 19.4062L30.5206 24.7547C30.9494 25.4942 31.249 26.3014 31.4065 27.1416C31.7455 26.2966 31.8884 25.3857 31.8246 24.4775C31.7608 23.5693 31.4919 22.6874 31.0381 21.8981Z" fill="black"/>
</g>
<defs>
<clipPath id="clip0_208_543">
<rect width="24" height="24" fill="currentcolor" transform="translate(12 12)"/>
</clipPath>
</defs>
</svg>
