<svg width="120" height="39" viewBox="0 0 120 39" fill="none" xmlns="http://www.w3.org/2000/svg">
<g clip-path="url(#clip0_1_281)">
<path d="M4.16016 29.2384V4.73145H8.31658V29.2384H4.16016ZM22.6832 29.7186C20.907 29.7525 19.154 29.3048 17.6042 28.4214C16.1381 27.5744 14.9333 26.3282 14.1252 24.8229C13.2601 23.1602 12.8295 21.2994 12.8746 19.4188C12.832 17.5215 13.2533 15.6431 14.1006 13.9524C14.8896 12.4207 16.0882 11.1472 17.5582 10.279C19.13 9.37587 20.9123 8.92123 22.717 8.96302C24.4642 8.91902 26.1892 9.36802 27.701 10.2602C29.0817 11.0922 30.2192 12.2838 30.9961 13.7122C31.7893 15.1642 32.1991 16.8004 32.1854 18.4615C32.1854 18.7265 32.1854 19.0134 32.1639 19.319C32.1425 19.6246 32.1333 19.9645 32.1057 20.3387H16.9482C17.081 22.2534 17.7023 23.7086 18.8119 24.7044C19.87 25.6834 21.253 26.2192 22.6832 26.2043C23.7295 26.241 24.7624 25.9563 25.6473 25.3873C26.4433 24.8428 27.0639 24.0716 27.4312 23.1701H31.5724C31.0543 25.0304 29.9599 26.6708 28.452 27.8476C26.903 29.095 24.9801 29.7186 22.6832 29.7186ZM22.6832 12.4337C21.3541 12.4164 20.0581 12.8559 19.005 13.6811C17.9322 14.5126 17.2782 15.7703 17.0432 17.4542H28.0136C27.9339 15.9221 27.3975 14.7008 26.4044 13.7902C25.3782 12.874 24.0479 12.3891 22.6832 12.4337ZM42.9535 23.1701C41.9999 23.1792 41.0495 23.0586 40.1274 22.8115L38.4415 24.4892C38.7715 24.6954 39.1272 24.8559 39.499 24.9663C40.0772 25.1342 40.6675 25.2552 41.2646 25.328C42.0247 25.4341 43.0587 25.538 44.3666 25.6399C46.9536 25.8789 48.8234 26.5109 49.9759 27.5358C50.5448 28.0441 50.9949 28.6751 51.2935 29.3829C51.592 30.0907 51.7315 30.8574 51.7016 31.6271C51.7015 32.803 51.3834 33.9563 50.782 34.9606C50.094 36.0786 49.0986 36.9666 47.9191 37.5145C46.6256 38.1672 44.9714 38.4936 42.9566 38.4936C40.2346 38.4936 38.0308 37.9677 36.3449 36.9158C34.659 35.8638 33.8151 34.2735 33.813 32.1447C33.8229 31.284 34.0464 30.4399 34.4628 29.6906C34.9781 28.7829 35.6809 27.9998 36.5227 27.3955C36.0219 27.1823 35.5417 26.9224 35.0882 26.619C34.708 26.3585 34.3464 26.0709 34.0061 25.7584V24.8229L37.3779 21.3116C35.8616 19.9811 35.1035 18.238 35.1035 16.0822C35.0892 14.8286 35.4068 13.5942 36.023 12.5086C36.6602 11.4094 37.5915 10.5171 38.7082 9.93594C40.0217 9.26521 41.4782 8.93629 42.9474 8.97861C43.9877 8.96855 45.0228 9.12967 46.0126 9.45572H53.271V12.2622L49.8196 12.4618C50.4504 13.5639 50.7757 14.8194 50.7606 16.0946C50.7805 17.3548 50.4626 18.5967 49.841 19.687C49.2016 20.773 48.2784 21.6571 47.1743 22.2409C45.8654 22.9035 44.4145 23.2229 42.9535 23.1701ZM37.7426 31.7518C37.7245 32.2812 37.8554 32.8048 38.1199 33.2611C38.3843 33.7174 38.7713 34.0874 39.2354 34.3275C40.3841 34.9364 41.6683 35.2318 42.9627 35.1851C44.3931 35.1851 45.5569 34.8732 46.454 34.2496C46.8682 33.9854 47.2085 33.617 47.4421 33.1801C47.6757 32.7431 47.7946 32.2523 47.7873 31.7549C47.7893 31.3787 47.7096 31.0066 47.5538 30.6654C47.398 30.3242 47.17 30.0222 46.8862 29.781C46.2731 29.2363 45.1349 28.8964 43.4715 28.7613C42.2168 28.6844 41.1052 28.5649 40.1366 28.4027C39.217 28.9079 38.604 29.4536 38.2545 30.0398C37.932 30.5521 37.7519 31.1437 37.7334 31.7518H37.7426ZM42.9535 19.8585C44.0124 19.9087 45.0524 19.5601 45.8746 18.8793C46.6225 18.2286 46.9955 17.3046 46.9934 16.1071C46.9914 14.9097 46.6185 13.9742 45.8746 13.3006C45.0455 12.6356 44.0081 12.2978 42.9535 12.3495C41.7274 12.3495 40.7394 12.6686 39.9894 13.3069C39.2395 13.9451 38.8676 14.8806 38.8737 16.1134C38.8737 17.3108 39.2456 18.2349 39.9894 18.8856C40.7332 19.5362 41.7213 19.8606 42.9535 19.8585ZM62.0559 29.7186C60.4109 29.7186 59.051 29.439 57.9761 28.8798C56.9822 28.3948 56.1499 27.624 55.5822 26.6627C55.0611 25.7478 54.7901 24.7077 54.7975 23.6504C54.7686 22.7668 54.9539 21.8895 55.3372 21.096C55.7205 20.3025 56.2899 19.6173 56.9952 19.1007C58.4604 17.9823 60.5529 17.4231 63.2728 17.4231H68.3733V17.0645C68.3733 15.5219 67.9646 14.364 67.1472 13.5906C66.2683 12.7996 65.1227 12.3851 63.9502 12.4337C62.8857 12.4045 61.8371 12.7011 60.9402 13.285C60.5185 13.5702 60.1618 13.9441 59.8942 14.3814C59.6267 14.8188 59.4544 15.3094 59.3892 15.8202H55.2297C55.3281 14.4704 55.8273 13.1829 56.6611 12.1281C57.5012 11.0927 58.5793 10.2841 59.7999 9.77379C61.1252 9.2175 62.5473 8.9396 63.9808 8.95679C66.7007 8.95679 68.8055 9.6844 70.2952 11.1396C71.7849 12.5948 72.5307 14.5698 72.5328 17.0645V29.226H68.922L68.5695 25.8457C68.0089 26.9517 67.1861 27.8981 66.1755 28.5992C65.1293 29.3455 63.7561 29.7186 62.0559 29.7186ZM62.8804 26.2885C63.8893 26.322 64.8834 26.0353 65.7249 25.4684C66.5046 24.9145 67.1272 24.1617 67.5304 23.2855C67.972 22.3446 68.244 21.3306 68.3334 20.2919H63.705C62.0559 20.2919 60.885 20.584 60.1922 21.1682C59.8662 21.4267 59.6029 21.758 59.4228 22.1365C59.2426 22.5149 59.1503 22.9305 59.1531 23.351C59.1368 23.7631 59.2195 24.1731 59.3942 24.5453C59.5689 24.9176 59.8302 25.2408 60.1555 25.4871C60.8206 26.0265 61.731 26.2854 62.8804 26.2854V26.2885ZM85.3546 29.7186C83.5624 29.7493 81.7946 29.294 80.2326 28.3996C78.7461 27.5382 77.5237 26.2741 76.7015 24.748C75.8265 23.0871 75.3873 21.2248 75.4263 19.3408C75.3873 17.4559 75.8265 15.5925 76.7015 13.9305C77.5245 12.405 78.7467 11.1411 80.2326 10.279C81.7949 9.38565 83.5627 8.93146 85.3546 8.96302C87.7618 8.96302 89.7818 9.60124 91.4145 10.8777C93.0529 12.159 94.1764 14.0036 94.5747 16.0666H90.2191C89.9889 15.0208 89.3707 14.1058 88.4933 13.5127C87.6067 12.9368 86.5818 12.6192 85.5302 12.5944C84.4785 12.5697 83.4403 12.8387 82.5284 13.3723C81.6401 13.9186 80.9201 14.7072 80.4502 15.6487C79.8934 16.7948 79.6239 18.0631 79.6655 19.3408C79.6242 20.6185 79.8938 21.8868 80.4502 23.0329C80.924 23.9767 81.6427 24.7704 82.5284 25.328C83.3795 25.8556 84.358 26.132 85.3546 26.1263C86.4703 26.1486 87.5658 25.822 88.4933 25.1908C89.3782 24.5871 89.9972 23.6565 90.2191 22.5964H94.5747C94.1825 24.6495 93.0662 26.486 91.4359 27.7603C89.7869 29.068 87.7597 29.7207 85.3546 29.7186ZM99.9603 38.0196L104.629 27.6013H103.491L95.8008 9.44013H100.313L106.278 24.0963L112.515 9.44013H116.908L104.34 38.0196H99.9603ZM117.919 25.0006C117.368 25.0014 116.839 25.2249 116.45 25.6219C116.06 26.0189 115.841 26.5569 115.841 27.118C115.842 27.6784 116.061 28.2157 116.451 28.612C116.84 29.0083 117.368 29.2314 117.919 29.2322C118.471 29.2322 119 29.0095 119.39 28.6131C119.78 28.2167 120 27.679 120.001 27.118C119.999 26.5575 119.779 26.0205 119.389 25.6248C118.999 25.2291 118.47 25.0068 117.919 25.0068V25.0006ZM10.0239 25.0006H8.31658V29.2384H10.0239V25.0006Z" fill="white"/>
<rect y="0.5" width="4" height="4" fill="#FCC595"/>
</g>
<defs>
<clipPath id="clip0_1_281">
<rect width="120" height="38" fill="white" transform="translate(0 0.5)"/>
</clipPath>
</defs>
</svg>
