<svg width="120" height="38" viewBox="0 0 120 38" fill="none" xmlns="http://www.w3.org/2000/svg">
<g id="logo 1" clip-path="url(#clip0_3591_497)">
<g id="Layer 2">
<g id="Layer 1">
<path id="Vector" d="M4.16016 28.7385V4.23157H8.31658V28.7385H4.16016ZM22.6832 29.2188C20.907 29.2526 19.154 28.8049 17.6042 27.9215C16.1381 27.0745 14.9333 25.8283 14.1252 24.323C13.2601 22.6604 12.8295 20.7995 12.8746 18.9189C12.832 17.0216 13.2533 15.1432 14.1006 13.4525C14.8896 11.9208 16.0882 10.6473 17.5582 9.77908C19.13 8.87599 20.9123 8.42135 22.717 8.46314C24.4642 8.41915 26.1892 8.86814 27.701 9.76037C29.0817 10.5923 30.2192 11.7839 30.9961 13.2124C31.7893 14.6643 32.1991 16.3006 32.1854 17.9616C32.1854 18.2266 32.1854 18.5135 32.1639 18.8191C32.1425 19.1247 32.1333 19.4646 32.1057 19.8388H16.9482C17.081 21.7535 17.7023 23.2087 18.8119 24.2045C19.87 25.1835 21.253 25.7193 22.6832 25.7044C23.7295 25.7412 24.7624 25.4565 25.6473 24.8874C26.4433 24.3429 27.0639 23.5717 27.4312 22.6703H31.5724C31.0543 24.5305 29.9599 26.171 28.452 27.3478C26.903 28.5951 24.9801 29.2188 22.6832 29.2188ZM22.6832 11.9338C21.3541 11.9165 20.0581 12.356 19.005 13.1812C17.9322 14.0127 17.2782 15.2705 17.0432 16.9544H28.0136C27.9339 15.4222 27.3975 14.2009 26.4044 13.2903C25.3782 12.3741 24.0479 11.8892 22.6832 11.9338ZM42.9535 22.6703C41.9999 22.6794 41.0495 22.5588 40.1274 22.3117L38.4415 23.9893C38.7715 24.1955 39.1272 24.356 39.499 24.4664C40.0772 24.6344 40.6675 24.7553 41.2646 24.8282C42.0247 24.9342 43.0587 25.0381 44.3666 25.14C46.9536 25.3791 48.8234 26.011 49.9759 27.0359C50.5448 27.5442 50.9949 28.1752 51.2935 28.883C51.592 29.5909 51.7315 30.3576 51.7016 31.1272C51.7015 32.3031 51.3834 33.4564 50.782 34.4607C50.094 35.5787 49.0986 36.4667 47.9191 37.0146C46.6256 37.6674 44.9714 37.9938 42.9566 37.9938C40.2346 37.9938 38.0308 37.4678 36.3449 36.4159C34.659 35.364 33.8151 33.7736 33.813 31.6448C33.8229 30.7842 34.0464 29.94 34.4628 29.1907C34.9781 28.283 35.6809 27.5 36.5227 26.8956C36.0219 26.6824 35.5417 26.4225 35.0882 26.1191C34.708 25.8586 34.3464 25.571 34.0061 25.2585V24.323L37.3779 20.8117C35.8616 19.4813 35.1035 17.7381 35.1035 15.5823C35.0892 14.3287 35.4068 13.0944 36.023 12.0087C36.6602 10.9095 37.5915 10.0173 38.7082 9.43606C40.0217 8.76534 41.4782 8.43641 42.9474 8.47874C43.9877 8.46868 45.0228 8.62979 46.0126 8.95584H53.271V11.7623L49.8196 11.9619C50.4504 13.064 50.7757 14.3195 50.7606 15.5948C50.7805 16.855 50.4626 18.0968 49.841 19.1871C49.2016 20.2731 48.2784 21.1572 47.1743 21.741C45.8654 22.4036 44.4145 22.723 42.9535 22.6703ZM37.7426 31.2519C37.7245 31.7813 37.8554 32.3049 38.1199 32.7612C38.3843 33.2175 38.7713 33.5875 39.2354 33.8277C40.3841 34.4365 41.6683 34.732 42.9627 34.6852C44.3931 34.6852 45.5569 34.3734 46.454 33.7497C46.8682 33.4855 47.2085 33.1172 47.4421 32.6802C47.6757 32.2432 47.7946 31.7524 47.7873 31.255C47.7893 30.8788 47.7096 30.5068 47.5538 30.1655C47.398 29.8243 47.17 29.5223 46.8862 29.2811C46.2731 28.7365 45.1349 28.3966 43.4715 28.2614C42.2168 28.1845 41.1052 28.065 40.1366 27.9028C39.217 28.408 38.604 28.9537 38.2545 29.54C37.932 30.0523 37.7519 30.6439 37.7334 31.2519H37.7426ZM42.9535 19.3586C44.0124 19.4088 45.0524 19.0602 45.8746 18.3794C46.6225 17.7288 46.9955 16.8047 46.9934 15.6072C46.9914 14.4098 46.6185 13.4743 45.8746 12.8007C45.0455 12.1357 44.0081 11.7979 42.9535 11.8497C41.7274 11.8497 40.7394 12.1688 39.9894 12.807C39.2395 13.4452 38.8676 14.3807 38.8737 15.6135C38.8737 16.8109 39.2456 17.735 39.9894 18.3857C40.7332 19.0364 41.7213 19.3607 42.9535 19.3586ZM62.0559 29.2188C60.4109 29.2188 59.051 28.9392 57.9761 28.3799C56.9822 27.8949 56.1499 27.1241 55.5822 26.1628C55.0611 25.2479 54.7901 24.2078 54.7975 23.1505C54.7686 22.2669 54.9539 21.3896 55.3372 20.5961C55.7205 19.8027 56.2899 19.1174 56.9952 18.6008C58.4604 17.4824 60.5529 16.9232 63.2728 16.9232H68.3733V16.5646C68.3733 15.022 67.9646 13.8641 67.1472 13.0907C66.2683 12.2998 65.1227 11.8852 63.9502 11.9338C62.8857 11.9046 61.8371 12.2012 60.9402 12.7852C60.5185 13.0703 60.1618 13.4442 59.8942 13.8815C59.6267 14.3189 59.4544 14.8095 59.3892 15.3204H55.2297C55.3281 13.9705 55.8273 12.683 56.6611 11.6283C57.5012 10.5929 58.5793 9.78419 59.7999 9.27391C61.1252 8.71763 62.5473 8.43972 63.9808 8.45691C66.7007 8.45691 68.8055 9.18452 70.2952 10.6397C71.7849 12.095 72.5307 14.0699 72.5328 16.5646V28.7261H68.922L68.5695 25.3458C68.0089 26.4518 67.1861 27.3982 66.1755 28.0993C65.1293 28.8456 63.7561 29.2188 62.0559 29.2188ZM62.8804 25.7886C63.8893 25.8221 64.8834 25.5355 65.7249 24.9685C66.5046 24.4146 67.1272 23.6618 67.5304 22.7856C67.972 21.8447 68.244 20.8308 68.3334 19.792H63.705C62.0559 19.792 60.885 20.0841 60.1922 20.6683C59.8662 20.9268 59.6029 21.2581 59.4228 21.6366C59.2426 22.0151 59.1503 22.4306 59.1531 22.8511C59.1368 23.2633 59.2195 23.6732 59.3942 24.0455C59.5689 24.4177 59.8302 24.741 60.1555 24.9872C60.8206 25.5267 61.731 25.7855 62.8804 25.7855V25.7886ZM85.3546 29.2188C83.5624 29.2494 81.7946 28.7941 80.2326 27.8997C78.7461 27.0383 77.5237 25.7743 76.7015 24.2481C75.8265 22.5873 75.3873 20.7249 75.4263 18.841C75.3873 16.956 75.8265 15.0927 76.7015 13.4306C77.5245 11.9051 78.7467 10.6412 80.2326 9.77908C81.7949 8.88577 83.5627 8.43158 85.3546 8.46314C87.7618 8.46314 89.7818 9.10136 91.4145 10.3778C93.0529 11.6591 94.1764 13.5037 94.5747 15.5667H90.2191C89.9889 14.5209 89.3707 13.606 88.4933 13.0128C87.6067 12.4369 86.5818 12.1193 85.5302 12.0945C84.4785 12.0698 83.4403 12.3389 82.5284 12.8725C81.6401 13.4187 80.9201 14.2073 80.4502 15.1489C79.8934 16.2949 79.6239 17.5633 79.6655 18.841C79.6242 20.1186 79.8938 21.3869 80.4502 22.5331C80.924 23.4768 81.6427 24.2705 82.5284 24.8282C83.3795 25.3557 84.358 25.6321 85.3546 25.6264C86.4703 25.6487 87.5658 25.3222 88.4933 24.6909C89.3782 24.0872 89.9972 23.1566 90.2191 22.0965H94.5747C94.1825 24.1496 93.0662 25.9861 91.4359 27.2605C89.7869 28.5681 87.7597 29.2208 85.3546 29.2188ZM99.9603 37.5198L104.629 27.1014H103.491L95.8008 8.94025H100.313L106.278 23.5964L112.515 8.94025H116.908L104.34 37.5198H99.9603ZM117.919 24.5007C117.368 24.5016 116.839 24.725 116.45 25.122C116.06 25.519 115.841 26.0571 115.841 26.6181C115.842 27.1786 116.061 27.7158 116.451 28.1122C116.84 28.5085 117.368 28.7315 117.919 28.7323C118.471 28.7323 119 28.5097 119.39 28.1133C119.78 27.7168 120 27.1791 120.001 26.6181C119.999 26.0576 119.779 25.5206 119.389 25.1249C118.999 24.7292 118.47 24.507 117.919 24.507V24.5007ZM10.0239 24.5007H8.31658V28.7385H10.0239V24.5007Z" fill="#111111"/>
</g>
</g>
<rect id="Rectangle 4" width="4" height="4" fill="#E5B080"/>
</g>
<defs>
<clipPath id="clip0_3591_497">
<rect width="120" height="38" fill="white"/>
</clipPath>
</defs>
</svg>
