<svg width="338" height="180" viewBox="0 0 338 180" fill="none" xmlns="http://www.w3.org/2000/svg">
<g clip-path="url(#clip0_206_310)">
<rect width="338" height="180" rx="8" fill="#101014"/>
<g style="mix-blend-mode:lighten" filter="url(#filter0_f_206_310)">
<ellipse cx="89" cy="36.5" rx="89" ry="36.5" transform="matrix(1 0 0 -1 259 325)" fill="#E5B080"/>
</g>
<g style="mix-blend-mode:lighten" filter="url(#filter1_f_206_310)">
<circle cx="36.5" cy="36.5" r="36.5" transform="matrix(1 0 0 -1 -92 204)" fill="#3E8497"/>
</g>
<g style="mix-blend-mode:lighten" opacity="0.32" filter="url(#filter2_f_206_310)">
<ellipse cx="108" cy="27.5" rx="108" ry="27.5" transform="matrix(1 0 0 -1 61 -27)" fill="#9E9E9E"/>
</g>
<mask id="mask0_206_310" style="mask-type:alpha" maskUnits="userSpaceOnUse" x="69" y="38" width="200" height="107">
<ellipse opacity="0.48" cx="169" cy="91.5" rx="100" ry="53.5" fill="#D9D9D9" fill-opacity="0.08"/>
</mask>
<g mask="url(#mask0_206_310)">
<line x1="75.3536" y1="-32.6464" x2="-171.646" y2="214.354" stroke="white"/>
<line x1="82.3536" y1="-32.6464" x2="-164.646" y2="214.354" stroke="white"/>
<line x1="89.3536" y1="-32.6464" x2="-157.646" y2="214.354" stroke="white"/>
<line x1="96.3536" y1="-32.6464" x2="-150.646" y2="214.354" stroke="white"/>
<line x1="103.354" y1="-32.6464" x2="-143.646" y2="214.354" stroke="white"/>
<line x1="110.354" y1="-32.6464" x2="-136.646" y2="214.354" stroke="white"/>
<line x1="117.354" y1="-32.6464" x2="-129.646" y2="214.354" stroke="white"/>
<line x1="124.354" y1="-32.6464" x2="-122.646" y2="214.354" stroke="white"/>
<line x1="131.354" y1="-32.6464" x2="-115.646" y2="214.354" stroke="white"/>
<line x1="138.354" y1="-32.6464" x2="-108.646" y2="214.354" stroke="white"/>
<line x1="145.354" y1="-32.6464" x2="-101.646" y2="214.354" stroke="white"/>
<line x1="152.354" y1="-32.6464" x2="-94.6464" y2="214.354" stroke="white"/>
<line x1="159.354" y1="-32.6464" x2="-87.6464" y2="214.354" stroke="white"/>
<line x1="166.354" y1="-32.6464" x2="-80.6464" y2="214.354" stroke="white"/>
<line x1="173.354" y1="-32.6464" x2="-73.6464" y2="214.354" stroke="white"/>
<line x1="180.354" y1="-32.6464" x2="-66.6464" y2="214.354" stroke="white"/>
<line x1="187.354" y1="-32.6464" x2="-59.6465" y2="214.354" stroke="white"/>
<line x1="194.354" y1="-32.6464" x2="-52.6465" y2="214.354" stroke="white"/>
<line x1="201.354" y1="-32.6464" x2="-45.6465" y2="214.354" stroke="white"/>
<line x1="208.354" y1="-32.6464" x2="-38.6465" y2="214.354" stroke="white"/>
<line x1="215.354" y1="-32.6464" x2="-31.6465" y2="214.354" stroke="white"/>
<line x1="222.354" y1="-32.6464" x2="-24.6465" y2="214.354" stroke="white"/>
<line x1="229.354" y1="-32.6464" x2="-17.6465" y2="214.354" stroke="white"/>
<line x1="236.354" y1="-32.6464" x2="-10.6465" y2="214.354" stroke="white"/>
<line x1="243.354" y1="-32.6464" x2="-3.64645" y2="214.354" stroke="white"/>
<line x1="250.354" y1="-32.6464" x2="3.35355" y2="214.354" stroke="white"/>
<line x1="257.354" y1="-32.6464" x2="10.3535" y2="214.354" stroke="white"/>
<line x1="264.354" y1="-32.6464" x2="17.3535" y2="214.354" stroke="white"/>
<line x1="271.354" y1="-32.6464" x2="24.3535" y2="214.354" stroke="white"/>
<line x1="278.354" y1="-32.6464" x2="31.3535" y2="214.354" stroke="white"/>
<line x1="285.354" y1="-32.6464" x2="38.3535" y2="214.354" stroke="white"/>
<line x1="292.354" y1="-32.6464" x2="45.3535" y2="214.354" stroke="white"/>
<line x1="299.354" y1="-32.6464" x2="52.3535" y2="214.354" stroke="white"/>
<line x1="306.354" y1="-32.6464" x2="59.3535" y2="214.354" stroke="white"/>
<line x1="313.354" y1="-32.6464" x2="66.3536" y2="214.354" stroke="white"/>
<line x1="320.354" y1="-32.6464" x2="73.3536" y2="214.354" stroke="white"/>
<line x1="327.354" y1="-32.6464" x2="80.3536" y2="214.354" stroke="white"/>
<line x1="334.354" y1="-32.6464" x2="87.3536" y2="214.354" stroke="white"/>
<line x1="341.354" y1="-32.6464" x2="94.3536" y2="214.354" stroke="white"/>
<line x1="348.354" y1="-32.6464" x2="101.354" y2="214.354" stroke="white"/>
<line x1="355.354" y1="-32.6464" x2="108.354" y2="214.354" stroke="white"/>
<line x1="362.354" y1="-32.6464" x2="115.354" y2="214.354" stroke="white"/>
<line x1="369.354" y1="-32.6464" x2="122.354" y2="214.354" stroke="white"/>
<line x1="376.354" y1="-32.6464" x2="129.354" y2="214.354" stroke="white"/>
<line x1="383.354" y1="-32.6464" x2="136.354" y2="214.354" stroke="white"/>
<line x1="390.354" y1="-32.6464" x2="143.354" y2="214.354" stroke="white"/>
<line x1="397.354" y1="-32.6464" x2="150.354" y2="214.354" stroke="white"/>
<line x1="404.354" y1="-32.6464" x2="157.354" y2="214.354" stroke="white"/>
<line x1="411.354" y1="-32.6464" x2="164.354" y2="214.354" stroke="white"/>
<line x1="418.354" y1="-32.6464" x2="171.354" y2="214.354" stroke="white"/>
<line x1="425.354" y1="-32.6464" x2="178.354" y2="214.354" stroke="white"/>
<line x1="432.354" y1="-32.6464" x2="185.354" y2="214.354" stroke="white"/>
<line x1="439.354" y1="-32.6464" x2="192.354" y2="214.354" stroke="white"/>
<line x1="446.354" y1="-32.6464" x2="199.354" y2="214.354" stroke="white"/>
<line x1="453.354" y1="-32.6464" x2="206.354" y2="214.354" stroke="white"/>
<line x1="460.354" y1="-32.6464" x2="213.354" y2="214.354" stroke="white"/>
<line x1="467.354" y1="-32.6464" x2="220.354" y2="214.354" stroke="white"/>
<line x1="474.354" y1="-32.6464" x2="227.354" y2="214.354" stroke="white"/>
<line x1="481.354" y1="-32.6464" x2="234.354" y2="214.354" stroke="white"/>
<line x1="488.354" y1="-32.6464" x2="241.354" y2="214.354" stroke="white"/>
<line x1="495.354" y1="-32.6464" x2="248.354" y2="214.354" stroke="white"/>
<line x1="502.354" y1="-32.6464" x2="255.354" y2="214.354" stroke="white"/>
<line x1="509.354" y1="-32.6464" x2="262.354" y2="214.354" stroke="white"/>
</g>
</g>
<rect x="0.5" y="0.5" width="337" height="179" rx="7.5" stroke="url(#paint0_linear_206_310)"/>
<defs>
<filter id="filter0_f_206_310" x="131" y="124" width="434" height="329" filterUnits="userSpaceOnUse" color-interpolation-filters="sRGB">
<feFlood flood-opacity="0" result="BackgroundImageFix"/>
<feBlend mode="normal" in="SourceGraphic" in2="BackgroundImageFix" result="shape"/>
<feGaussianBlur stdDeviation="64" result="effect1_foregroundBlur_206_310"/>
</filter>
<filter id="filter1_f_206_310" x="-220" y="3" width="329" height="329" filterUnits="userSpaceOnUse" color-interpolation-filters="sRGB">
<feFlood flood-opacity="0" result="BackgroundImageFix"/>
<feBlend mode="normal" in="SourceGraphic" in2="BackgroundImageFix" result="shape"/>
<feGaussianBlur stdDeviation="64" result="effect1_foregroundBlur_206_310"/>
</filter>
<filter id="filter2_f_206_310" x="-59" y="-202" width="456" height="295" filterUnits="userSpaceOnUse" color-interpolation-filters="sRGB">
<feFlood flood-opacity="0" result="BackgroundImageFix"/>
<feBlend mode="normal" in="SourceGraphic" in2="BackgroundImageFix" result="shape"/>
<feGaussianBlur stdDeviation="60" result="effect1_foregroundBlur_206_310"/>
</filter>
<linearGradient id="paint0_linear_206_310" x1="169" y1="-49" x2="169" y2="151" gradientUnits="userSpaceOnUse">
<stop stop-color="#E5B080" stop-opacity="0.19"/>
<stop offset="1" stop-color="#666666" stop-opacity="0"/>
</linearGradient>
<clipPath id="clip0_206_310">
<rect width="338" height="180" rx="8" fill="white"/>
</clipPath>
</defs>
</svg>
